<svg width="300" height="300" viewBox="0 0 300 300" fill="none" xmlns="http://www.w3.org/2000/svg">
<path d="M300 150C300 232.843 232.843 300 150 300C67.1573 300 0 232.843 0 150C0 67.1573 67.1573 0 150 0C232.843 0 300 67.1573 300 150Z" fill="#3F6765"/>
<path d="M97 224V76H150.862C161.299 76 169.941 77.7344 176.787 81.2031C183.634 84.6237 188.757 89.2728 192.156 95.1504C195.555 100.98 197.255 107.556 197.255 114.879C197.255 121.046 196.13 126.249 193.879 130.488C191.629 134.68 188.613 138.052 184.831 140.605C181.096 143.111 176.979 144.941 172.478 146.098V147.543C177.362 147.784 182.126 149.374 186.77 152.312C191.462 155.203 195.34 159.322 198.404 164.67C201.468 170.018 203 176.521 203 184.182C203 191.745 201.229 198.538 197.686 204.561C194.191 210.535 188.78 215.28 181.455 218.797C174.13 222.266 164.77 224 153.375 224H97ZM119.191 204.85H151.221C161.85 204.85 169.462 202.778 174.058 198.635C178.654 194.492 180.953 189.313 180.953 183.098C180.953 178.424 179.78 174.137 177.434 170.234C175.088 166.332 171.736 163.225 167.379 160.912C163.07 158.6 157.948 157.443 152.011 157.443H119.191V204.85ZM119.191 140.027H148.923C153.902 140.027 158.378 139.064 162.352 137.137C166.374 135.21 169.558 132.512 171.904 129.043C174.298 125.526 175.495 121.383 175.495 116.613C175.495 110.495 173.364 105.364 169.103 101.221C164.842 97.0775 158.307 95.0059 149.497 95.0059H119.191V140.027Z" fill="#D9E2D5"/>
</svg>
